<svg width="320" height="88" viewBox="0 0 320 88" fill="none" xmlns="http://www.w3.org/2000/svg">
<path d="M39.7399 86.8124C38.8652 86.8124 38.1495 86.5353 37.5928 85.9811C37.0361 85.4269 36.7578 84.7143 36.7578 83.8435V6.65047C36.7578 5.77962 37.0361 5.06707 37.5928 4.51282C38.1495 3.95857 38.8652 3.68151 39.7399 3.68151H50.5945C51.7873 3.68151 52.662 3.95857 53.2187 4.51282C53.7754 5.06707 54.1332 5.50243 54.2922 5.81916L86.1404 55.3414V6.65047C86.1404 5.77962 86.4187 5.06707 86.9754 4.51282C87.5321 3.95857 88.2079 3.68151 89.0032 3.68151H101.17C102.045 3.68151 102.76 3.95857 103.317 4.51282C103.874 5.06707 104.152 5.77962 104.152 6.65047V83.8435C104.152 84.6352 103.874 85.3478 103.317 85.9811C102.76 86.5353 102.045 86.8124 101.17 86.8124H90.196C89.0032 86.8124 88.1285 86.5353 87.5718 85.9811C87.0947 85.3478 86.7368 84.9123 86.4983 84.6748L54.7693 36.6964V83.8435C54.7693 84.7143 54.4911 85.4269 53.9344 85.9811C53.3777 86.5353 52.662 86.8124 51.7873 86.8124H39.7399ZM123.343 86.8124C122.548 86.8124 121.872 86.5353 121.315 85.9811C120.758 85.4269 120.48 84.7143 120.48 83.8435V28.027C120.48 27.1561 120.758 26.4436 121.315 25.8893C121.872 25.3351 122.548 25.058 123.343 25.058H135.271C136.146 25.058 136.861 25.3351 137.418 25.8893C137.975 26.4436 138.253 27.1561 138.253 28.027V83.8435C138.253 84.7143 137.975 85.4269 137.418 85.9811C136.861 86.5353 136.146 86.8124 135.271 86.8124H123.343ZM122.985 15.5574C122.19 15.5574 121.515 15.2803 120.958 14.726C120.401 14.1718 120.123 13.4592 120.123 12.5884V3.08772C120.123 2.21682 120.401 1.50427 120.958 0.950067C121.515 0.316681 122.19 0 122.985 0H135.51C136.384 0 137.1 0.316681 137.657 0.950067C138.293 1.50427 138.611 2.21682 138.611 3.08772V12.5884C138.611 13.4592 138.293 14.1718 137.657 14.726C137.1 15.2803 136.384 15.5574 135.51 15.5574H122.985ZM183.033 86.8124C178.103 86.8124 173.889 86.0207 170.389 84.4372C166.891 82.7746 164.227 80.2412 162.397 76.8367C160.649 73.4323 159.773 69.157 159.773 64.0108V39.0715H150.469C149.595 39.0715 148.879 38.7945 148.322 38.2402C147.766 37.686 147.487 36.9734 147.487 36.1026V28.027C147.487 27.1561 147.766 26.4436 148.322 25.8893C148.879 25.3351 149.595 25.058 150.469 25.058H159.773V5.46289C159.773 4.59203 160.052 3.87948 160.608 3.32524C161.245 2.77103 161.961 2.49393 162.755 2.49393H174.445C175.32 2.49393 176.036 2.77103 176.592 3.32524C177.149 3.87948 177.427 4.59203 177.427 5.46289V25.058H192.337C193.133 25.058 193.809 25.3351 194.365 25.8893C194.922 26.4436 195.2 27.1561 195.2 28.027V36.1026C195.2 36.9734 194.922 37.686 194.365 38.2402C193.809 38.7945 193.133 39.0715 192.337 39.0715H177.427V62.5857C177.427 65.5942 177.944 67.9694 178.977 69.7112C180.091 71.3738 182 72.2051 184.703 72.2051H193.41C194.206 72.2051 194.882 72.4822 195.438 73.0364C195.995 73.5907 196.273 74.2636 196.273 75.0553V83.8435C196.273 84.7143 195.995 85.4269 195.438 85.9811C194.882 86.5353 194.206 86.8124 193.41 86.8124H183.033ZM236.501 86.8124C231.57 86.8124 227.356 86.0207 223.857 84.4372C220.357 82.7746 217.694 80.2412 215.865 76.8367C214.115 73.4323 213.241 69.157 213.241 64.0108V39.0715H203.937C203.062 39.0715 202.346 38.7945 201.79 38.2402C201.233 37.686 200.955 36.9734 200.955 36.1026V28.027C200.955 27.1561 201.233 26.4436 201.79 25.8893C202.346 25.3351 203.062 25.058 203.937 25.058H213.241V5.46289C213.241 4.59203 213.519 3.87948 214.076 3.32524C214.712 2.77103 215.427 2.49393 216.223 2.49393H227.913C228.787 2.49393 229.503 2.77103 230.06 3.32524C230.616 3.87948 230.895 4.59203 230.895 5.46289V25.058H245.805C246.599 25.058 247.276 25.3351 247.833 25.8893C248.389 26.4436 248.668 27.1561 248.668 28.027V36.1026C248.668 36.9734 248.389 37.686 247.833 38.2402C247.276 38.7945 246.599 39.0715 245.805 39.0715H230.895V62.5857C230.895 65.5942 231.411 67.9694 232.445 69.7112C233.558 71.3738 235.467 72.2051 238.171 72.2051H246.878C247.673 72.2051 248.349 72.4822 248.906 73.0364C249.462 73.5907 249.741 74.2636 249.741 75.0553V83.8435C249.741 84.7143 249.462 85.4269 248.906 85.9811C248.349 86.5353 247.673 86.8124 246.878 86.8124H236.501ZM288.536 88C281.937 88 276.409 86.9312 271.956 84.7935C267.503 82.5767 264.084 79.4494 261.698 75.4116C259.392 71.3738 258.12 66.663 257.881 61.2794C257.801 59.6959 257.762 57.9146 257.762 55.9352C257.762 53.8768 257.801 52.0954 257.881 50.5911C258.12 45.1282 259.471 40.4174 261.937 36.4588C264.402 32.4211 267.861 29.3333 272.314 27.1957C276.767 24.9788 282.175 23.8704 288.536 23.8704C294.819 23.8704 300.187 24.9788 304.639 27.1957C309.092 29.3333 312.551 32.4211 315.017 36.4588C317.482 40.4174 318.834 45.1282 319.072 50.5911C319.231 52.0954 319.311 53.8768 319.311 55.9352C319.311 57.9146 319.231 59.6959 319.072 61.2794C318.834 66.663 317.522 71.3738 315.136 75.4116C312.83 79.4494 309.45 82.5767 304.997 84.7935C300.544 86.9312 295.057 88 288.536 88ZM288.536 74.9366C292.433 74.9366 295.375 73.749 297.363 71.3738C299.352 68.9194 300.425 65.3567 300.584 60.6856C300.664 59.498 300.703 57.9146 300.703 55.9352C300.703 53.9559 300.664 52.3725 300.584 51.1849C300.425 46.5929 299.352 43.0698 297.363 40.6154C295.375 38.161 292.433 36.9339 288.536 36.9339C284.639 36.9339 281.657 38.161 279.59 40.6154C277.602 43.0698 276.528 46.5929 276.37 51.1849C276.29 52.3725 276.25 53.9559 276.25 55.9352C276.25 57.9146 276.29 59.498 276.37 60.6856C276.528 65.3567 277.602 68.9194 279.59 71.3738C281.657 73.749 284.639 74.9366 288.536 74.9366Z" fill="white"/>
<path d="M3.10783 9.41797V11.6304C3.84857 11.6059 4.68807 11.5813 5.52758 11.5813C6.73745 11.5813 14.8856 11.5813 16.1201 11.5813C16.935 11.5813 17.8732 11.6059 18.5399 11.6304V9.41797C17.8732 9.49172 17.009 9.54088 16.1201 9.54088C14.8609 9.54088 7.08313 9.54088 5.52758 9.54088C4.71276 9.54088 3.89795 9.49172 3.10783 9.41797ZM0.984375 21.6111V23.9711C1.79919 23.8974 2.66338 23.8482 3.57696 23.8482C4.98437 23.8482 16.935 23.8482 18.3671 23.8482C19.009 23.8482 19.8732 23.8974 20.614 23.9711V21.6111C19.8979 21.6849 19.0831 21.7341 18.3671 21.7341C16.935 21.7341 4.98437 21.7341 3.57696 21.7341C2.66338 21.7341 1.82388 21.6603 0.984375 21.6111ZM1.2066 43.8729V46.282C1.99672 46.2328 3.30536 46.1837 4.66338 46.1837C6.49054 46.1837 16.3424 46.1837 18.2189 46.1837C19.3053 46.1837 20.3424 46.2574 20.8609 46.282V43.8729C20.293 43.922 19.4288 44.0204 18.1942 44.0204C16.3671 44.0204 6.46585 44.0204 4.66338 44.0204C3.25598 44.0204 1.97203 43.9466 1.2066 43.8729ZM7.00906 81.4498C7.00906 82.3594 6.98436 83.5886 6.86091 84.3752H9.25596C9.1572 83.564 9.10782 82.2365 9.10782 81.4498C9.10782 80.2944 9.08313 70.9775 9.08313 67.1671C9.08313 66.405 9.1572 65.348 9.25596 64.5859H6.83622C6.95967 65.3726 7.00906 66.4542 7.00906 67.1671C7.00906 69.2075 7.00906 80.0732 7.00906 81.4498ZM8.63868 71.0512V73.2145C11.33 74.0504 15.9473 75.7958 18.7621 77.2953L19.6263 75.2058C16.8856 73.8783 11.8979 71.9854 8.63868 71.0512Z" fill="white"/>
</svg>
